<svg width="496" height="248" viewBox="0 0 496 248" fill="none" xmlns="http://www.w3.org/2000/svg"><path d="M352.629 123.57c0-68.6-55.615-124.215-124.215-124.215S104.199 54.97 104.199 123.57c0 68.601 55.615 124.196 124.215 124.196s124.215-55.615 124.215-124.196Z" fill="#62BAEA"/><path d="M338.002 97.716c-5.722-24.136-19.665-46.007-39.231-61.61-20.153-16.07-44.484-24.565-70.358-24.565-25.874 0-50.205 8.494-70.358 24.566-19.567 15.602-33.49 37.473-39.231 61.61h4.667c5.644-22.73 18.883-43.313 37.376-58.056 19.332-15.408 42.687-23.57 67.526-23.57s48.194 8.143 67.527 23.57c18.492 14.743 31.732 35.325 37.375 58.055h4.707ZM123.55 149.581c5.663 22.672 18.903 43.175 37.337 57.88 19.332 15.407 42.687 23.569 67.526 23.569s48.135-8.123 67.468-23.511c18.473-14.704 31.732-35.247 37.414-57.938h4.687c-5.761 24.097-19.703 45.929-39.25 61.492-20.133 16.032-44.445 24.507-70.3 24.507-25.854 0-50.205-8.494-70.357-24.546-19.528-15.563-33.432-37.376-39.192-61.433h4.667v-.02Z" fill="#fff"/><path d="M-.508 113.299H9.627v25.386h5.37v-25.386h9.96v-4.902H-.509v4.902ZM51.729 122.008H36.946v-13.611h-5.33v30.288h5.33v-11.932H51.73v11.932h5.35v-30.249h-5.35v13.572ZM67.603 138.685h19.704v-4.902H72.954v-7.244H85.96v-4.746H72.954v-8.494h14.353v-4.902H67.603v30.288Z" fill="#002E5A"/><path d="M117.048 138.685h5.292s-.801-8.046-.801-11.814h13.552v-4.746h-13.552c0-3.827.566-8.846.566-8.846h14.626v-4.901h-19.703c-1.464 9.471-1.23 20.875 0 30.287M153.604 125.152h-3.964v-11.853h3.964c5.038 0 6.717 2.538 6.717 5.858s-1.718 5.995-6.717 5.995Zm12.497-5.995c0-6.327-4.042-10.779-12.107-10.779h-9.705v30.287h5.351v-8.787h3.319c.957 0 1.855-.039 2.715-.137l6.424 8.924h6.249l-7.752-10.252c3.788-1.777 5.506-5.077 5.506-9.256ZM175.748 138.685h19.684v-4.902h-14.353v-7.244h13.025v-4.746h-13.025v-8.494h14.353v-4.902h-19.684v30.288ZM204.785 138.685h19.684v-4.902h-14.333v-7.244h13.005v-4.746h-13.005v-8.494h14.333v-4.902h-19.684v30.288ZM245.304 133.783h-6.073v-20.465h6.073c6.074 0 10.428 4.355 10.428 10.291 0 5.937-4.569 10.174-10.428 10.174Zm-.039-25.386h-11.423v30.288h11.423c9.256 0 16.208-6.503 16.208-15.173s-6.815-15.134-16.208-15.134M284.321 134.467c-5.858 0-10.428-4.785-10.428-10.858s4.433-10.896 10.428-10.896c5.995 0 10.428 4.687 10.428 10.896 0 6.21-4.57 10.858-10.428 10.858Zm-.039-26.577c-9.08 0-16.149 6.893-16.149 15.641 0 8.749 6.893 15.642 16.149 15.642s16.208-6.718 16.208-15.642-6.815-15.641-16.208-15.641ZM336.694 108.261l-12.283 22.066-12.576-22.066h-2.363l-.859 30.424h5.214l.078-17.106 9.432 17.379h1.855l10.623-19.723s.801 6.19-.859 19.469h4.96c1.172-11.912 1.445-17.086-.078-30.424h-3.144v-.019Z" fill="#fff"/><path d="M368.914 138.685h5.292v-11.814h12.752v-4.726h-12.752v-8.846h14.392v-4.902h-19.684v30.288ZM415.781 126.109c0 5.819-2.792 8.241-7.362 8.241-4.569 0-7.186-2.422-7.186-8.182v-17.751h-5.35v17.751c0 9.041 4.96 13.103 12.536 13.103 7.577 0 12.713-4.043 12.713-13.103v-17.751h-5.351v17.712-.02ZM451.789 127.749l-18.746-19.527h-1.68v30.463h5.351v-18.786l19 19h1.426v-30.502h-5.351v19.352ZM479.129 133.783h-6.073v-20.465h6.073c6.073 0 10.427 4.355 10.427 10.291 0 5.937-4.569 10.174-10.427 10.174Zm-.039-25.386h-11.424v30.288h11.424c9.256 0 16.208-6.503 16.208-15.173s-6.816-15.134-16.208-15.134" fill="#002E5A"/></svg>